HIERARCHY
ROOT Hips
{
	OFFSET 0.00000 0.00000 0.00000
	CHANNELS 6 Xposition Yposition Zposition Zrotation Yrotation Xrotation 
	JOINT LHipJoint
	{
		OFFSET 0 0 0
		CHANNELS 3 Zrotation Yrotation Xrotation
		JOINT LeftUpLeg
		{
			OFFSET 1.75344 -1.53157 0.77399
			CHANNELS 3 Zrotation Yrotation Xrotation
			JOINT LeftLeg
			{
				OFFSET 2.25415 -6.19323 0.00000
				CHANNELS 3 Zrotation Yrotation Xrotation
				JOINT LeftFoot
				{
					OFFSET 2.30342 -6.32861 0.00000
					CHANNELS 3 Zrotation Yrotation Xrotation
					JOINT LeftToeBase
					{
						OFFSET 0.10958 -0.30108 1.49206
						CHANNELS 3 Zrotation Yrotation Xrotation
						End Site
						{
							OFFSET 0.00000 -0.00000 0.77783
						}
					}
				}
			}
		}
	}
	JOINT RHipJoint
	{
		OFFSET 0 0 0
		CHANNELS 3 Zrotation Yrotation Xrotation
		JOINT RightUpLeg
		{
			OFFSET -1.81912 -1.53156 0.77399
			CHANNELS 3 Zrotation Yrotation Xrotation
			JOINT RightLeg
			{
				OFFSET -2.22882 -6.12365 0.00000
				CHANNELS 3 Zrotation Yrotation Xrotation
				JOINT RightFoot
				{
					OFFSET -2.21943 -6.09785 0.00000
					CHANNELS 3 Zrotation Yrotation Xrotation
					JOINT RightToeBase
					{
						OFFSET -0.18931 -0.52012 1.59379
						CHANNELS 3 Zrotation Yrotation Xrotation
						End Site
						{
							OFFSET -0.00000 -0.00000 0.84686
						}
					}
				}
			}
		}
	}
	JOINT LowerBack
	{
		OFFSET 0 0 0
		CHANNELS 3 Zrotation Yrotation Xrotation
		JOINT Spine
		{
			OFFSET -0.00200 1.66634 -0.14248
			CHANNELS 3 Zrotation Yrotation Xrotation
			JOINT Spine1
			{
				OFFSET -0.00875 1.64542 0.09514
				CHANNELS 3 Zrotation Yrotation Xrotation
				JOINT Neck
				{
					OFFSET 0 0 0
					CHANNELS 3 Zrotation Yrotation Xrotation
					JOINT Neck1
					{
						OFFSET 0.02257 1.59605 0.00839
						CHANNELS 3 Zrotation Yrotation Xrotation
						JOINT Head
						{
							OFFSET -0.10214 1.57530 -0.23335
							CHANNELS 3 Zrotation Yrotation Xrotation
							End Site
							{
								OFFSET -0.03588 1.60717 -0.08062
							}
						}
					}
				}
				JOINT LeftShoulder
				{
					OFFSET 0 0 0
					CHANNELS 3 Zrotation Yrotation Xrotation
					JOINT LeftArm
					{
						OFFSET 2.54983 1.10186 0.40078
						CHANNELS 3 Zrotation Yrotation Xrotation
						JOINT LeftForeArm
						{
							OFFSET 4.28840 -0.00000 0.00000
							CHANNELS 3 Zrotation Yrotation Xrotation
							JOINT LeftHand
							{
								OFFSET 3.06552 -0.00000 -0.00000
								CHANNELS 3 Zrotation Yrotation Xrotation
								JOINT LeftFingerBase
								{
									OFFSET 0 0 0
									CHANNELS 3 Zrotation Yrotation Xrotation
									JOINT LeftHandIndex1
									{
										OFFSET 0.75304 -0.00000 0.00000
										CHANNELS 3 Zrotation Yrotation Xrotation
										End Site
										{
											OFFSET 0.60712 -0.00000 0.00000
										}
									}
								}
								JOINT LThumb
								{
									OFFSET 0 0 0
									CHANNELS 3 Zrotation Yrotation Xrotation
									End Site
									{
										OFFSET 0.61639 -0.00000 0.61639
									}
								}
							}
						}
					}
				}
				JOINT RightShoulder
				{
					OFFSET 0 0 0
					CHANNELS 3 Zrotation Yrotation Xrotation
					JOINT RightArm
					{
						OFFSET -2.60909 1.35448 0.21802
						CHANNELS 3 Zrotation Yrotation Xrotation
						JOINT RightForeArm
						{
							OFFSET -4.52172 -0.00000 -0.00000
							CHANNELS 3 Zrotation Yrotation Xrotation
							JOINT RightHand
							{
								OFFSET -2.89140 -0.00000 0.00000
								CHANNELS 3 Zrotation Yrotation Xrotation
								JOINT RightFingerBase
								{
									OFFSET 0 0 0
									CHANNELS 3 Zrotation Yrotation Xrotation
									JOINT RightHandIndex1
									{
										OFFSET -0.68054 -0.00000 0.00000
										CHANNELS 3 Zrotation Yrotation Xrotation
										End Site
										{
											OFFSET -0.54867 -0.00000 0.00000
										}
									}
								}
								JOINT RThumb
								{
									OFFSET 0 0 0
									CHANNELS 3 Zrotation Yrotation Xrotation
									End Site
									{
										OFFSET -0.55705 -0.00000 0.55705
									}
								}
							}
						}
					}
				}
			}
		}
	}
}
MOTION
Frames: 12
Frame Time: .0083333
8.8743 15.4764 22.5808 0 0 0 0 0 0 -21 0 0 0 0 0 0 0 0 0 0 0 0 0 0 21 0 0 0 0 0 0 0 0 0 0 0 0 0 0 0 0 0 0 0 0 0 0 -16 0 0 21 0 0 11 0 0 0 -8 0 0 0 0 0 0 0 0 0 0 0 0 0 0 0 0 0 0 0 0 8 0 0 0 0 0 0 0 0 0 0 0 0 0 0 0 0 0
8.8743 15.4764 22.5808 -178.9230 2.4836 178.8530 0.0000 0.0000 0.0000 -25.0668 -20.7851 2.2372 1.6435 8.0804 22.9584 0.8643 13.1458 -26.7748 2.7561 -10.2893 -29.9187 0.0000 0.0000 0.0000 26.7685 16.1191 7.9296 -0.6279 -5.0706 14.1099 -0.1328 -19.5311 -28.6220 -0.0425 1.3309 -3.6598 1.2928 1.1036 8.0951 -0.1682 1.7077 -4.5596 -1.1849 0.7744 -9.3547 -5.0199 -1.1857 -9.0552 5.2519 -1.7808 12.2469 2.3289 -0.8285 5.2587 -0.0000 -0.0000 0.0000 -87.9838 10.5173 29.9471 23.4449 -34.5718 -7.3892 -0.0000 -0.0000 4.6794 6.5202 -38.1901 -4.0420 -7.1250 0.0000 -0.0000 -14.5799 -7.3059 16.8372 -0.0000 -0.0000 0.0000 88.7227 -8.5566 29.1692 -21.2833 32.1575 -6.2000 0.0000 0.0000 21.6730 1.7212 -50.6761 -1.3316 7.1250 -0.0000 -0.0000 67.5002 -69.9334 -46.6776
8.8763 15.4803 22.5699 -178.9750 3.0620 178.9490 0.0000 0.0000 0.0000 -25.0802 -20.4854 2.1760 1.6382 8.0678 22.9202 0.8207 13.5201 -26.8111 2.9088 -10.5460 -30.7636 0.0000 0.0000 0.0000 26.6870 16.3866 7.8947 -0.6271 -5.0674 14.1008 -0.1441 -19.2362 -28.3151 -0.0560 1.5271 -4.2003 1.2112 1.1994 7.9867 -0.1536 1.8281 -4.5740 -1.1399 0.8399 -9.3059 -4.9070 -1.0880 -8.9554 5.1187 -1.6341 12.0278 2.2785 -0.7582 5.1644 -0.0000 0.0000 0.0000 -88.0625 10.5217 29.5986 23.1560 -34.2589 -7.2259 -0.0000 -0.0000 4.9136 6.4158 -37.7449 -3.9377 -7.1250 0.0000 -0.0000 -14.5995 -6.8640 16.7628 -0.0000 0.0000 0.0000 88.8500 -8.6569 29.1847 -21.2530 32.1225 -6.1839 0.0000 0.0000 21.5107 2.2662 -50.8407 -1.7576 7.1250 -0.0000 -0.0000 68.2701 -69.8118 -47.2098
8.8798 15.4858 22.5600 -179.0540 3.6644 179.1950 0.0000 0.0000 0.0000 -25.0458 -20.2096 1.9565 1.6238 8.0342 22.8180 0.8067 13.7706 -26.9553 2.9188 -10.5624 -30.8179 0.0000 0.0000 0.0000 26.5392 16.7755 7.6295 -0.6400 -5.1180 14.2453 -0.1431 -18.9953 -27.9888 -0.0858 1.8893 -5.1998 0.9829 1.3082 7.7752 -0.0836 1.9573 -4.6423 -0.9531 0.9226 -9.2621 -4.9593 -0.9701 -8.9281 5.1269 -1.4549 11.8585 2.3018 -0.6694 5.0984 -0.0000 0.0000 0.0000 -88.2503 10.5089 29.1204 22.8462 -33.9202 -7.0523 -0.0000 -0.0000 5.2461 6.0116 -37.6330 -3.6792 -7.1250 0.0000 -0.0000 -14.8005 -6.7054 16.9730 -0.0000 0.0000 0.0000 88.7682 -9.1072 29.3823 -21.5764 32.4950 -6.3568 0.0000 0.0000 21.3679 3.5572 -50.8653 -2.7606 7.1250 -0.0000 -0.0000 69.1741 -69.3832 -47.4855
8.8829 15.4884 22.5530 -179.0920 4.2843 179.4120 0.0000 0.0000 0.0000 -24.9971 -20.0247 1.7530 1.6127 8.0080 22.7383 0.7873 14.0455 -27.0865 2.8838 -10.5045 -30.6265 0.0000 0.0000 0.0000 26.4267 17.1040 7.3687 -0.6517 -5.1637 14.3762 -0.1503 -18.7467 -27.7156 -0.1256 2.2843 -6.2921 0.7708 1.4186 7.6351 0.0095 2.0945 -4.7234 -0.7542 1.0085 -9.2763 -5.0740 -0.8430 -8.9159 5.2270 -1.2697 11.7292 2.3646 -0.5752 5.0477 0.0000 -0.0000 0.0000 -88.3953 10.6345 28.7869 22.6400 -33.6927 -6.9375 -0.0000 -0.0000 5.4621 5.8411 -38.0297 -3.6063 -7.1250 0.0000 -0.0000 -14.9175 -7.0657 17.1988 0.0000 -0.0000 0.0000 88.6382 -9.0458 29.4721 -21.2183 32.0822 -6.1655 0.0000 0.0000 21.5732 3.9907 -50.0584 -3.0617 7.1250 -0.0000 -0.0000 67.5336 -68.9175 -45.4600
8.8813 15.4865 22.5469 -179.0980 4.3362 179.4090 0.0000 0.0000 0.0000 -25.0101 -19.9940 1.8125 1.6015 7.9814 22.6577 0.8091 13.9293 -27.1328 2.7816 -10.3328 -30.0614 0.0000 0.0000 0.0000 26.4136 17.0638 7.2836 -0.6673 -5.2240 14.5485 -0.1701 -18.6543 -27.7454 -0.1181 2.2159 -6.1026 0.8187 1.3163 7.6961 0.0084 1.9629 -4.7340 -0.7640 0.9409 -9.3244 -4.9179 -0.9190 -8.7944 5.1698 -1.0637 11.5051 2.3456 -0.3363 4.9493 -0.0000 -0.0000 0.0000 -88.3955 10.8838 28.4286 22.5837 -33.6304 -6.9063 -0.0000 -0.0000 5.6388 5.4007 -37.8934 -3.3232 -7.1250 0.0000 -0.0000 -15.1347 -6.8808 17.4240 -0.0000 -0.0000 0.0000 88.6442 -9.2043 29.5691 -21.1893 32.0486 -6.1501 0.0000 0.0000 21.6906 4.3095 -49.7776 -3.2931 7.1250 -0.0000 -0.0000 67.1016 -68.6947 -44.8068
8.8814 15.4834 22.5414 -179.1520 4.6800 179.3800 0.0000 0.0000 0.0000 -25.0827 -19.8353 1.8962 1.5932 7.9616 22.5976 0.8970 13.6977 -27.5565 2.4776 -9.7970 -28.3219 0.0000 0.0000 0.0000 26.3468 17.1466 7.2387 -0.6819 -5.2798 14.7084 -0.1694 -18.4765 -27.5070 -0.0870 1.9024 -5.2361 0.8253 1.3235 7.7552 -0.0487 1.9664 -4.7150 -0.8301 0.9389 -9.3362 -4.7051 -0.8063 -8.6147 5.1513 -0.9440 11.1485 2.3097 -0.2766 4.8017 -0.0000 -0.0000 0.0000 -88.3316 11.0842 27.9620 22.5029 -33.5407 -6.8616 -0.0000 -0.0000 5.9989 4.7693 -37.4373 -2.9035 -7.1250 0.0000 -0.0000 -15.4307 -6.3679 17.6673 -0.0000 -0.0000 0.0000 88.7122 -9.4481 29.7255 -21.3162 32.1956 -6.2176 0.0000 0.0000 21.6848 4.7656 -50.0694 -3.6578 7.1250 -0.0000 -0.0000 68.0913 -68.6638 -45.6319
8.8806 15.4832 22.5340 -179.2150 5.0119 179.4050 0.0000 0.0000 0.0000 -25.1612 -19.7499 1.9440 1.5858 7.9440 22.5442 0.9272 13.6929 -27.7728 2.3504 -9.5608 -27.5657 0.0000 0.0000 0.0000 26.2572 17.2728 7.1588 -0.6945 -5.3274 14.8449 -0.1092 -18.4191 -26.9604 -0.0615 1.6001 -4.4017 0.8580 1.3513 7.8109 -0.1230 2.0018 -4.7301 -0.9349 0.9505 -9.3812 -4.5764 -0.7279 -8.5981 5.1792 -0.8600 10.9376 2.3010 -0.2320 4.7292 -0.0000 -0.0000 0.0000 -88.2753 11.2205 27.5145 22.2750 -33.2864 -6.7361 -0.0000 -0.0000 6.4887 4.5107 -37.5295 -2.7514 -7.1250 0.0000 -0.0000 -15.5702 -6.4265 17.8532 -0.0000 -0.0000 0.0000 88.7518 -9.6651 29.7324 -21.3779 32.2668 -6.2505 0.0000 0.0000 21.8950 5.1546 -50.3951 -3.9758 7.1250 -0.0000 -0.0000 69.1114 -68.6650 -46.5325
8.8818 15.4843 22.5269 -179.2380 5.2301 179.4320 0.0000 0.0000 0.0000 -25.1727 -19.6539 1.9752 1.5768 7.9224 22.4787 0.9246 13.7201 -27.7798 2.3447 -9.5500 -27.5314 0.0000 0.0000 0.0000 26.2381 17.4000 7.0715 -0.7071 -5.3743 14.9793 -0.0171 -18.4917 -26.3166 -0.0435 1.3457 -3.7004 0.8764 1.3192 7.9275 -0.1411 1.9602 -4.7503 -0.9620 0.9272 -9.4721 -4.4362 -0.6244 -8.7120 5.1194 -0.7318 10.8290 2.2668 -0.1691 4.7078 -0.0000 -0.0000 0.0000 -88.2892 11.3967 26.9938 22.0706 -33.0567 -6.6243 -0.0000 -0.0000 6.9391 4.3539 -37.9122 -2.6785 -7.1250 0.0000 -0.0000 -15.6747 -6.7757 18.0668 -0.0000 -0.0000 0.0000 88.6829 -9.7919 29.6656 -21.3780 32.2669 -6.2505 0.0000 0.0000 22.0438 5.8784 -50.4966 -4.5422 7.1250 -0.0000 -0.0000 69.8314 -68.4643 -46.9185
8.8843 15.4855 22.5205 -179.2830 5.6345 179.5070 0.0000 0.0000 0.0000 -25.1843 -19.5195 1.9430 1.5674 7.8999 22.4104 0.9485 13.7589 -27.9912 2.2329 -9.3352 -26.8495 0.0000 0.0000 0.0000 26.1704 17.6363 6.9356 -0.7174 -5.4124 15.0888 0.0544 -18.4369 -25.6421 -0.0271 1.0633 -2.9230 0.7437 1.3271 7.9767 -0.0755 1.9609 -4.7609 -0.8196 0.9379 -9.5196 -4.3616 -0.4787 -8.7575 5.0432 -0.5386 10.6014 2.2415 -0.0808 4.6356 0.0000 0.0000 0.0000 -88.3712 11.6695 26.5353 21.9905 -32.9662 -6.5807 -0.0000 -0.0000 7.1257 4.1856 -38.0184 -2.5808 -7.1250 0.0000 -0.0000 -15.7678 -6.8583 18.2024 0.0000 0.0000 0.0000 88.4424 -9.8112 29.6411 -21.2730 32.1456 -6.1945 0.0000 0.0000 22.0092 6.4699 -49.8924 -4.9572 7.1250 -0.0000 -0.0000 68.8608 -68.0290 -45.5053
8.8852 15.4867 22.5084 -179.2730 6.2846 179.6060 0.0000 0.0000 0.0000 -25.1731 -19.3881 1.9519 1.5569 7.8748 22.3344 0.9783 13.8940 -28.3343 2.0620 -8.9941 -25.7770 0.0000 0.0000 0.0000 26.1385 17.9630 6.8243 -0.7267 -5.4468 15.1876 0.0981 -18.2062 -24.9315 -0.0148 0.7866 -2.1619 0.6525 1.4333 8.0686 0.0123 2.1075 -4.8664 -0.7039 1.0184 -9.6945 -4.2959 -0.3683 -8.6509 4.9237 -0.3893 10.3560 2.2006 -0.0177 4.5349 -0.0000 -0.0000 0.0000 -88.4523 12.1348 26.1184 21.9421 -32.9115 -6.5544 -0.0000 -0.0000 7.2511 3.9627 -37.8524 -2.4340 -7.1250 0.0000 -0.0000 -15.8721 -6.6741 18.2872 -0.0000 -0.0000 0.0000 88.1852 -10.0324 29.6284 -21.2087 32.0712 -6.1604 0.0000 0.0000 21.9917 6.6805 -49.7052 -5.1051 7.1250 -0.0000 -0.0000 68.5905 -67.8833 -45.0820
8.8834 15.4855 22.4891 -179.2360 6.9233 179.5970 0.0000 0.0000 0.0000 -25.2398 -19.3437 2.1983 1.5434 7.8421 22.2355 1.0295 14.0226 -28.8176 1.8197 -8.4799 -24.1816 0.0000 0.0000 0.0000 26.1721 18.2024 6.8559 -0.7368 -5.4839 15.2940 0.1685 -18.0960 -24.1328 -0.0139 0.7604 -2.0899 0.9736 1.5613 6.6436 -0.0970 2.2511 -4.0314 -0.9532 1.0734 -7.9280 -4.1481 -0.2916 -8.8594 4.9441 -0.3068 9.3907 2.1803 0.0150 4.2702 0.0000 0.0000 0.0000 -88.3212 11.0818 25.5993 21.7158 -32.6543 -6.4318 -0.0000 -0.0000 7.5342 3.6915 -37.6973 -2.2593 -7.1250 0.0000 -0.0000 -16.0024 -6.4956 18.4051 0.0000 0.0000 0.0000 88.2531 -8.8488 29.4077 -21.0694 31.9092 -6.0866 0.0000 0.0000 22.0788 6.8455 -49.9346 -5.2492 7.1250 -0.0000 -0.0000 69.2134 -67.9231 -45.6803
